:SAMPLES-PER-SECOND 30
:FRAME-RANGE 1-3549
:FULLY-SPECIFIED
:DEGREES
999
root  -20.0597 38.6976 -37.1406 6.15839 -8.13339 0.741089
RightUpLeg  -16.1006 -12.9321 1.00955
RightLeg  52.1187 5.88154 7.70224
RightFoot  -14.3003 0.339426 16.8112
RightToes  1.218e-010 1.26228e-014 -6.01869e-014
Spine  -1.29292 2.17201 -1.94621
Spine1  7.80134 3.69442 -6.42343
HEad  2.92645 20.8226 -5.58221
LeftShoulder1  0.930182 -1.1505 -14.2008
LeftArm  11.6068 -11.9137 -25.1334
LeftForeArm  29.1901 -38.4378 -7.07172
LeftHand  -0.00881785 3.85832 -0.252858
RightShoulder  1.76366 5.4967 13.1385
RightArm  20.8272 36.6455 48.201
RightForeArm  44.8582 29.8293 4.05987
RightHand  -0.0674483 -4.07084 -4.26484
LeftUpLeg  -26.6431 -2.34461 -0.61406
LeftLeg  23.5992 4.03308 2.28143
LeftFoot  -2.18037 0.041191 -0.350098
LeftToes  -1.43952e-010 7.51141e-011 -1.22592e-011
1000
root  -20.477 38.7932 -36.8504 6.69238 -8.04105 -0.00524902
RightUpLeg  -18.3588 -13.8431 0.250385
RightLeg  50.1346 1.24381 1.24954
RightFoot  -14.4118 0.2536 13.0744
RightToes  1.218e-010 1.26228e-014 -6.01869e-014
Spine  -0.87018 2.06061 -1.55958
Spine1  7.54911 3.54455 -6.01678
HEad  2.25319 19.9206 -6.08649
LeftShoulder1  1.07396 -1.73852 -14.6611
LeftArm  20.0155 -12.0266 -28.0021
LeftForeArm  26.2972 -34.4229 -6.15617
LeftHand  -0.00881127 3.85748 -0.28578
RightShoulder  1.79183 5.51137 13.4556
RightArm  28.9357 35.3713 50.0079
RightForeArm  37.906 26.1034 3.60095
RightHand  -0.0491992 -4.9205 -7.04981
LeftUpLeg  -26.5422 -1.38614 0.689107
LeftLeg  23.6209 3.004 1.7898
LeftFoot  -2.61451 0.0889355 -0.959289
LeftToes  -1.43952e-010 7.51141e-011 -1.22592e-011
1001
root  -20.9241 38.8256 -36.5871 7.16833 -7.90584 -0.561462
RightUpLeg  -19.6224 -12.8314 -1.13693
RightLeg  46.025 -1.93578 -2.46126
RightFoot  -15.3753 0.253208 10.1352
RightToes  1.218e-010 1.26228e-014 -6.01869e-014
Spine  -0.536197 1.89476 -1.36584
Spine1  7.43884 3.38189 -5.82107
HEad  1.79758 19.1538 -5.88527
LeftShoulder1  1.17629 -2.06436 -15.3348
LeftArm  26.9282 -12.0815 -30.842
LeftForeArm  24.7201 -30.8571 -5.36238
LeftHand  -0.00680927 3.67043 -0.942077
RightShoulder  1.84286 5.51013 14.0986
RightArm  32.4571 33.7388 51.9054
RightForeArm  34.5811 22.1356 4.01082
RightHand  -0.0562494 -4.84114 -7.71637
LeftUpLeg  -26.6755 -0.698054 1.85091
LeftLeg  24.0604 2.39371 1.52087
LeftFoot  -3.16675 0.116925 -1.36969
LeftToes  -1.43952e-010 7.51141e-011 -1.22592e-011
1002
root  -21.4162 38.8062 -36.3356 7.48096 -7.65706 -0.916138
RightUpLeg  -19.567 -10.1888 -3.49429
RightLeg  40.168 -2.62531 -2.64683
RightFoot  -16.5857 0.347153 10.0197
RightToes  1.218e-010 1.26228e-014 -6.01869e-014
Spine  -0.229004 1.77884 -1.40584
Spine1  7.29989 3.24499 -5.61514
HEad  2.03265 18.527 -5.25264
LeftShoulder1  1.21317 -2.17101 -15.6052
LeftArm  34.2539 -12.0918 -34.8537
LeftForeArm  20.3582 -26.4093 -4.58358
LeftHand  -0.0100743 3.88459 -0.914678
RightShoulder  1.90811 5.41425 15.1748
RightArm  23.8723 31.5039 52.8202
RightForeArm  41.084 17.9359 7.35224
RightHand  -0.062951 -4.62357 -6.53603
LeftUpLeg  -26.8781 0.0794151 2.86759
LeftLeg  24.8573 1.47757 1.10104
LeftFoot  -3.9129 0.154116 -2.01178
LeftToes  -1.43952e-010 7.51141e-011 -1.22592e-011
1003
root  -21.931 38.7715 -36.0916 7.64032 -7.00531 -1.25195
RightUpLeg  -18.4627 -6.30433 -6.47096
RightLeg  33.9799 -1.85677 -1.5911
RightFoot  -17.3947 0.431031 10.3636
RightToes  1.218e-010 1.26228e-014 -6.01869e-014
Spine  -0.124545 1.71271 -1.21927
Spine1  7.28607 3.06579 -5.12689
HEad  1.9667 17.9298 -4.42881
LeftShoulder1  1.29527 -2.35495 -16.4033
LeftArm  40.2932 -12.054 -38.2909
LeftForeArm  16.8388 -22.5463 -4.38801
LeftHand  -0.0152757 4.3163 -1.01961
RightShoulder  1.96624 5.1014 16.8198
RightArm  15.176 28.0927 52.7276
RightForeArm  45.6732 15.6614 8.73081
RightHand  -0.0664983 -4.1215 -4.3301
LeftUpLeg  -26.9692 0.790288 3.89468
LeftLeg  25.627 0.27222 0.495596
LeftFoot  -4.66231 0.181004 -2.62195
LeftToes  -1.43952e-010 7.51141e-011 -1.22592e-011
1004
root  -22.5018 38.7066 -35.8697 7.64655 -6.00246 -1.38989
RightUpLeg  -17.1634 -1.43793 -9.61432
RightLeg  29.6241 -2.54061 -1.79202
RightFoot  -17.5714 0.39982 9.52176
RightToes  1.218e-010 1.26228e-014 -6.01869e-014
Spine  -0.0467939 1.62296 -1.17513
Spine1  7.29903 2.83911 -4.62705
HEad  1.70616 17.6833 -3.45554
LeftShoulder1  1.24273 -1.95876 -17.1892
LeftArm  37.1688 -11.8853 -41.2369
LeftForeArm  22.3138 -19.4368 -6.38514
LeftHand  -0.0233419 4.96653 -1.59272
RightShoulder  1.97627 4.53824 18.7757
RightArm  11.8803 23.4332 52.2624
RightForeArm  42.8689 17.2894 7.19823
RightHand  -0.0272245 -2.66535 -0.554217
LeftUpLeg  -27.0745 0.543809 4.95735
LeftLeg  26.4679 -0.400919 0.135702
LeftFoot  -5.29711 0.192982 -3.05274
LeftToes  -1.43952e-010 7.51141e-011 -1.22592e-011
1005
root  -23.1155 38.6366 -35.6812 7.51044 -4.77965 -1.41486
RightUpLeg  -15.8447 3.7486 -12.4035
RightLeg  27.2476 -4.60205 -2.79294
RightFoot  -16.8814 0.272727 7.99478
RightToes  1.218e-010 1.26228e-014 -6.01869e-014
Spine  0.0156357 1.62573 -0.951361
Spine1  7.25557 2.69699 -4.16127
HEad  1.62995 17.7768 -2.58269
LeftShoulder1  1.16422 -1.51056 -17.8018
LeftArm  29.6422 -11.4681 -43.9968
LeftForeArm  28.7511 -15.8523 -9.03687
LeftHand  -0.0272437 5.17785 -1.23324
RightShoulder  1.91067 3.80206 20.5804
RightArm  12.2017 18.0432 51.6847
RightForeArm  34.401 21.0839 4.36983
RightHand  0.180867 -0.0676892 3.97788
LeftUpLeg  -27.0437 0.284449 5.97326
LeftLeg  27.0695 -1.26928 -0.353236
LeftFoot  -5.82525 0.21887 -3.81722
LeftToes  -1.43952e-010 7.51141e-011 -1.22592e-011
1006
root  -23.805 38.5381 -35.5147 7.0979 -3.53935 -1.15033
RightUpLeg  -14.4395 7.87978 -14.7083
RightLeg  26.6766 -5.21937 -3.06695
RightFoot  -16.9112 0.166289 5.77242
RightToes  1.218e-010 1.26228e-014 -6.01869e-014
Spine  0.0822812 1.6281 -0.741707
Spine1  7.21425 2.63141 -4.06644
HEad  2.25323 18.0001 -1.81949
LeftShoulder1  1.07451 -1.00757 -18.5986
LeftArm  23.4676 -10.9068 -45.7927
LeftForeArm  31.7694 -12.71 -10.9453
LeftHand  -0.0255915 4.98268 -0.623092
RightShoulder  1.81412 3.13701 21.9314
RightArm  9.11084 12.5893 51.4602
RightForeArm  29.43 24.8189 3.76204
RightHand  0.386162 1.70392 6.17543
LeftUpLeg  -26.7425 -0.0369341 6.83151
LeftLeg  27.5626 -2.18924 -0.889058
LeftFoot  -6.3799 0.246601 -4.80767
LeftToes  -1.43952e-010 7.51141e-011 -1.22592e-011
1007
root  -24.5849 38.4365 -35.3839 6.7179 -2.37642 -0.633667
RightUpLeg  -13.1576 10.0214 -16.3977
RightLeg  26.9064 -3.87661 -2.35848
RightFoot  -16.7742 0.105892 4.62641
RightToes  1.218e-010 1.26228e-014 -6.01869e-014
Spine  -0.252773 1.57027 -0.796014
Spine1  7.32402 2.54868 -4.1263
HEad  3.89698 17.9789 -1.0899
LeftShoulder1  0.99711 -0.578017 -19.4179
LeftArm  16.1666 -9.97536 -46.817
LeftForeArm  34.2154 -9.42913 -12.2146
LeftHand  -0.026678 4.41181 0.353496
RightShoulder  1.70196 2.55054 22.8785
RightArm  5.94389 7.99148 52.2488
RightForeArm  26.2607 27.5751 4.52372
RightHand  0.38807 1.87964 6.03985
LeftUpLeg  -26.3331 -0.241003 7.56632
LeftLeg  27.6223 -3.16766 -1.44783
LeftFoot  -6.69316 0.277686 -5.8509
LeftToes  -1.43952e-010 7.51141e-011 -1.22592e-011
1008
root  -25.4461 38.3646 -35.2934 6.46619 -1.44772 -0.0635376
RightUpLeg  -12.1213 10.9876 -17.3971
RightLeg  27.3 -1.79414 -1.2301
RightFoot  -15.4398 0.0255541 3.63746
RightToes  1.218e-010 1.26228e-014 -6.01869e-014
Spine  -0.863528 1.42649 -0.961992
Spine1  7.40513 2.37503 -4.09531
HEad  5.925 17.6616 -0.687589
LeftShoulder1  0.902228 -0.122926 -20.1034
LeftArm  9.46459 -8.64762 -47.286
LeftForeArm  35.3355 -6.52457 -12.7071
LeftHand  -0.0347864 3.99154 1.16827
RightShoulder  1.60797 2.1246 23.4467
RightArm  4.83982 4.46427 54.1538
RightForeArm  23.5408 29.4882 5.10688
RightHand  0.17184 0.654741 3.24565
LeftUpLeg  -25.77 -0.277558 8.37925
LeftLeg  27.0187 -4.08995 -1.91673
LeftFoot  -6.60317 0.32743 -6.95304
LeftToes  -1.43952e-010 7.51141e-011 -1.22592e-011
1009
root  -26.4419 38.2198 -35.2863 6.22003 -0.921234 0.590088
RightUpLeg  -11.1989 11.4143 -17.9246
RightLeg  26.9986 -0.181473 -0.323527
RightFoot  -15.0444 0.30466 12.5485
RightToes  1.218e-010 1.26228e-014 -6.01869e-014
Spine  -1.31167 1.26719 -1.51456
Spine1  7.29548 2.22628 -4.28758
HEad  7.61319 17.098 -1.04187
LeftShoulder1  0.815546 0.254796 -20.5481
LeftArm  5.00437 -6.91969 -47.47
LeftForeArm  35.0741 -4.65614 -12.6629
LeftHand  -0.0464337 3.96627 2.1799
RightShoulder  1.55109 1.87432 23.7899
RightArm  5.5373 2.07522 56.6311
RightForeArm  22.1948 30.5816 5.43975
RightHand  -0.0571043 -1.86166 -1.57041
LeftUpLeg  -25.3397 -0.453637 9.4322
LeftLeg  26.5417 -4.64835 -2.17518
LeftFoot  -6.6104 0.401671 -8.75409
LeftToes  -1.43952e-010 7.51141e-011 -1.22592e-011
1010
root  -27.5024 38.0759 -35.3432 5.80878 -0.821899 0.901917
RightUpLeg  -10.175 10.261 -17.265
RightLeg  25.8989 2.19928 0.943839
RightFoot  -16.7652 0.767375 18.4701
RightToes  1.218e-010 1.26228e-014 -6.01869e-014
Spine  -1.61697 1.17314 -1.76201
Spine1  7.34012 2.10424 -4.26284
HEad  8.54244 16.7541 -2.22288
LeftShoulder1  0.732632 0.61359 -21.0627
LeftArm  2.19241 -5.28333 -47.272
LeftForeArm  35.1803 -3.59562 -12.4216
LeftHand  -0.052892 3.89273 2.63317
RightShoulder  1.54896 1.86409 23.8086
RightArm  7.82784 1.37142 59.0646
RightForeArm  23.6342 30.0862 5.24149
RightHand  -0.0979052 -3.6649 -5.50228
LeftUpLeg  -24.5839 -0.726808 11.0167
LeftLeg  25.7521 -4.78124 -2.16381
LeftFoot  -6.44923 0.493383 -10.6242
LeftToes  -1.43952e-010 7.51141e-011 -1.22592e-011
1011
root  -28.5558 37.9984 -35.4383 5.44275 -0.987595 0.732849
RightUpLeg  -9.59657 6.72369 -15.6705
RightLeg  25.6075 4.95983 2.36938
RightFoot  -18.9309 0.931126 15.8916
RightToes  1.218e-010 1.26228e-014 -6.01869e-014
Spine  -1.89905 1.15009 -1.25017
Spine1  7.36298 2.02393 -3.98715
HEad  8.80092 17.0149 -3.65951
LeftShoulder1  0.680073 0.841904 -21.4765
LeftArm  1.75016 -3.94149 -46.7252
LeftForeArm  34.9945 -3.14252 -12.4594
LeftHand  -0.0536548 4.10252 3.0692
RightShoulder  1.5719 1.91861 23.9447
RightArm  12.5305 1.84791 60.9939
RightForeArm  28.2546 28.3415 4.5872
RightHand  -0.0448457 -5.03533 -8.02726
LeftUpLeg  -23.4941 -1.14655 13.1353
LeftLeg  24.2169 -4.52907 -1.88427
LeftFoot  -5.79119 0.663953 -12.9399
LeftToes  -1.43952e-010 7.51141e-011 -1.22592e-011
